<?xml version="1.0" encoding="utf-8"?>
<!-- Generator: Adobe Illustrator 15.0.0, SVG Export Plug-In . SVG Version: 6.00 Build 0)  -->
<!DOCTYPE svg PUBLIC "-//W3C//DTD SVG 1.1//EN" "http://www.w3.org/Graphics/SVG/1.1/DTD/svg11.dtd">
<svg version="1.1" id="Layer_1" xmlns="http://www.w3.org/2000/svg" xmlns:xlink="http://www.w3.org/1999/xlink" x="0px" y="0px"
	 width="100px" height="100px" viewBox="0 0 100 100" enable-background="new 0 0 100 100" xml:space="preserve">
<path fill="#E4192D" d="M57.396,50.493c-0.681,0-1.233,0.552-1.233,1.232c0,0.68,0.553,1.232,1.233,1.232
	c0.679,0,1.231-0.553,1.231-1.232C58.627,51.045,58.074,50.493,57.396,50.493z"/>
<path fill="#E4192D" d="M31.044,64.021L18.721,79.549c-0.294,0.37-0.35,0.876-0.145,1.302c0.206,0.426,0.637,0.696,1.109,0.696
	h60.63c0.473,0,0.904-0.271,1.109-0.696c0.206-0.426,0.15-0.932-0.145-1.302L68.958,64.021c-0.234-0.294-0.589-0.466-0.966-0.466
	H57.198l9.216-14.455c2.161-3.241,3.304-7.021,3.304-10.931c0-10.872-8.845-19.717-19.717-19.717
	c-10.873,0-19.717,8.845-19.717,19.717c0,3.91,1.143,7.689,3.305,10.931l9.216,14.455H32.009
	C31.633,63.556,31.278,63.728,31.044,64.021z M26.443,73.784h7.451l-4.205,5.298h-7.452L26.443,73.784z M44.375,66.02l3.378,5.3
	h-8.756l4.205-5.3H44.375z M55.627,66.02H56.8l4.205,5.3h-8.757L55.627,66.02z M62.961,73.784l4.205,5.298H32.835l4.206-5.298
	H62.961z M70.313,79.082l-4.206-5.298h7.452l4.204,5.298H70.313z M71.603,71.319h-7.451l-4.206-5.3h7.452L71.603,71.319z
	 M35.646,47.744c-1.896-2.837-2.897-6.147-2.897-9.574c0-9.513,7.739-17.252,17.252-17.252c9.513,0,17.253,7.739,17.253,17.252
	c0,3.426-1.003,6.736-2.897,9.574c-0.006,0.007-0.01,0.014-0.014,0.021c-0.81,1.27-13.719,21.517-14.342,22.494
	C48.433,67.8,37.256,50.27,35.659,47.765C35.655,47.758,35.65,47.751,35.646,47.744z M40.056,66.02l-4.206,5.3h-7.451l4.206-5.3
	H40.056z"/>
<path fill="#E4192D" d="M50.001,50.493c6.765,0,12.323-5.479,12.323-12.323c0-6.795-5.528-12.323-12.323-12.323
	S37.678,31.375,37.678,38.17C37.678,45.017,43.237,50.493,50.001,50.493z M50.001,28.312c5.437,0,9.858,4.422,9.858,9.858
	c0,5.487-4.458,9.859-9.858,9.859c-5.402,0-9.859-4.372-9.859-9.859C40.142,32.734,44.564,28.312,50.001,28.312z"/>
<path fill="#E4192D" d="M55.191,54.698c-0.582-0.352-1.34-0.164-1.691,0.419l-4.555,7.557c-0.351,0.583-0.164,1.341,0.419,1.691
	c0.585,0.354,1.342,0.162,1.691-0.419l4.556-7.557C55.962,55.807,55.774,55.05,55.191,54.698z"/>
</svg>
