<?xml version="1.0" encoding="utf-8"?>
<!-- Generator: Adobe Illustrator 15.0.0, SVG Export Plug-In . SVG Version: 6.00 Build 0)  -->
<!DOCTYPE svg PUBLIC "-//W3C//DTD SVG 1.1//EN" "http://www.w3.org/Graphics/SVG/1.1/DTD/svg11.dtd">
<svg version="1.1" id="Layer_1" xmlns="http://www.w3.org/2000/svg" xmlns:xlink="http://www.w3.org/1999/xlink" x="0px" y="0px"
	 width="100px" height="100px" viewBox="0 0 100 100" enable-background="new 0 0 100 100" xml:space="preserve">
<g>
	<g>
		<path fill="#E4192D" d="M33.154,36.793c-8.954,0-16.239,7.285-16.239,16.239c0,5.559,2.645,11.536,7.86,17.766
			c0.774,0.926,1.547,1.783,2.288,2.565c-3.368,0.92-5.39,2.57-5.39,4.498c0,3.413,5.915,5.254,11.479,5.254
			s11.479-1.841,11.479-5.254c0-1.926-2.021-3.577-5.387-4.497c1.345-1.42,2.792-3.09,4.164-4.952
			c0.318-0.432,0.226-1.039-0.206-1.358c-0.432-0.317-1.04-0.226-1.358,0.206c-1.657,2.25-3.451,4.226-5.016,5.796
			c-0.18,0.091-0.33,0.237-0.424,0.42c-1.402,1.378-2.583,2.4-3.251,2.959c-0.662-0.553-1.824-1.562-3.208-2.922
			c-0.1-0.218-0.274-0.388-0.487-0.483C25.06,68.604,18.857,60.96,18.857,53.032c0-7.883,6.413-14.296,14.296-14.296
			c7.883,0,14.296,6.414,14.296,14.296c0,3.442-1.173,7.16-3.487,11.05c-0.274,0.461-0.123,1.057,0.338,1.331
			s1.057,0.122,1.332-0.338c2.494-4.194,3.759-8.246,3.759-12.043C49.393,44.078,42.107,36.793,33.154,36.793z M32.559,78.455
			c0.175,0.135,0.385,0.202,0.595,0.202c0.209,0,0.419-0.067,0.594-0.202c0.12-0.092,1.742-1.358,3.905-3.473
			c3.276,0.667,5.037,1.954,5.037,2.879c0,0.691-0.947,1.507-2.473,2.129c-1.872,0.764-4.38,1.183-7.064,1.183
			c-5.822,0-9.537-1.961-9.537-3.312c0-0.927,1.762-2.213,5.039-2.88C30.831,77.109,32.456,78.374,32.559,78.455z"/>
	</g>
</g>
<g>
	<g>
		<path fill="#E4192D" d="M33.154,45.971c-1.537,0-2.997,0.485-4.224,1.402c-0.43,0.321-0.518,0.93-0.196,1.359
			c0.321,0.43,0.93,0.518,1.359,0.197c0.889-0.665,1.947-1.016,3.061-1.016c2.822,0,5.118,2.296,5.118,5.119
			c0,2.821-2.296,5.118-5.118,5.118c-2.823,0-5.119-2.297-5.119-5.118c0-0.482,0.067-0.958,0.198-1.415
			c0.148-0.516-0.15-1.054-0.666-1.202c-0.515-0.148-1.053,0.15-1.201,0.666c-0.181,0.632-0.273,1.287-0.273,1.951
			c0,3.893,3.167,7.06,7.061,7.06s7.061-3.166,7.061-7.06C40.214,49.138,37.047,45.971,33.154,45.971z"/>
	</g>
</g>
<g>
	<g>
		<path fill="#E4192D" d="M75.478,45.1c0.495-0.53,1.004-1.101,1.514-1.711c4.043-4.83,6.094-9.472,6.094-13.799
			c0-7.005-5.699-12.705-12.705-12.705c-5.117,0-9.714,3.046-11.706,7.76c-0.21,0.494,0.021,1.064,0.516,1.272
			s1.063-0.022,1.273-0.516c1.688-3.994,5.581-6.574,9.917-6.574c5.935,0,10.763,4.828,10.763,10.763
			c0,8.026-8.426,15.714-10.763,17.692c-0.515-0.436-1.326-1.147-2.276-2.08c-0.095-0.188-0.249-0.337-0.433-0.429
			c-3.354-3.377-8.055-9.18-8.055-15.184c0-0.537-0.435-0.971-0.971-0.971c-0.537,0-0.972,0.435-0.972,0.971
			c0,4.327,2.051,8.969,6.094,13.799c0.511,0.61,1.02,1.181,1.513,1.711c-2.503,0.751-3.948,2.032-3.948,3.574
			c0,1.3,1.055,2.446,2.97,3.228c1.64,0.667,3.798,1.035,6.078,1.035c2.279,0,4.438-0.368,6.077-1.035
			c1.915-0.781,2.971-1.927,2.971-3.228C79.427,47.135,77.98,45.854,75.478,45.1z M70.38,50.994c-4.598,0-7.105-1.533-7.105-2.32
			c0-0.513,1.141-1.452,3.577-1.971c1.639,1.596,2.854,2.543,2.934,2.604c0.176,0.135,0.385,0.203,0.595,0.203
			c0.209,0,0.419-0.067,0.595-0.203c0.078-0.061,1.294-1.009,2.934-2.604c1.086,0.231,2.025,0.57,2.684,0.971
			c0.559,0.341,0.893,0.713,0.893,0.999C77.484,49.461,74.977,50.994,70.38,50.994z"/>
	</g>
</g>
<g>
	<g>
		<path fill="#E4192D" d="M70.38,23.939c-3.116,0-5.651,2.535-5.651,5.651s2.535,5.651,5.651,5.651s5.651-2.535,5.651-5.651
			C76.031,26.475,73.496,23.939,70.38,23.939z M70.38,33.299c-2.045,0-3.709-1.664-3.709-3.708c0-2.045,1.664-3.709,3.709-3.709
			s3.709,1.664,3.709,3.709C74.089,31.635,72.425,33.299,70.38,33.299z"/>
	</g>
</g>
<g>
	<g>
		<path fill="#E4192D" d="M57.781,47.703h-0.443c-0.322,0-0.647,0.021-0.965,0.063c-0.531,0.072-0.905,0.56-0.835,1.092
			c0.066,0.488,0.483,0.843,0.963,0.843c0.042,0,0.086-0.003,0.129-0.009c0.232-0.031,0.472-0.046,0.708-0.046h0.443l0,0
			c0.537,0,0.972-0.435,0.972-0.972C58.753,48.138,58.318,47.703,57.781,47.703z"/>
	</g>
</g>
<g>
	<g>
		<path fill="#E4192D" d="M54.57,76.841c-0.001,0-0.003,0-0.004,0l-1.282,0.007c-0.537,0.002-0.97,0.438-0.967,0.975
			c0.002,0.535,0.437,0.967,0.971,0.967c0.002,0,0.003,0,0.005,0l1.282-0.006c0.536-0.002,0.969-0.438,0.967-0.976
			C55.539,77.272,55.105,76.841,54.57,76.841z"/>
	</g>
</g>
<g>
	<g>
		<path fill="#E4192D" d="M58.935,60.282h-1.282c-0.537,0-0.972,0.436-0.972,0.972s0.435,0.971,0.972,0.971h1.282
			c0.536,0,0.971-0.435,0.971-0.971S59.471,60.282,58.935,60.282z"/>
	</g>
</g>
<g>
	<g>
		<path fill="#E4192D" d="M53.788,49.681c-0.364-0.394-0.978-0.419-1.372-0.055c-0.362,0.333-0.691,0.706-0.979,1.106
			c-0.313,0.436-0.214,1.043,0.222,1.354c0.171,0.124,0.369,0.183,0.566,0.183c0.301,0,0.6-0.14,0.789-0.404
			c0.211-0.294,0.453-0.566,0.719-0.812C54.127,50.689,54.151,50.075,53.788,49.681z"/>
	</g>
</g>
<g>
	<g>
		<path fill="#E4192D" d="M59.702,76.817c-0.002,0-0.004,0-0.005,0l-1.282,0.006c-0.536,0.002-0.969,0.439-0.967,0.976
			c0.002,0.535,0.437,0.967,0.971,0.967c0.002,0,0.003,0,0.005,0l1.282-0.006c0.536-0.002,0.969-0.439,0.967-0.976
			C60.67,77.249,60.236,76.817,59.702,76.817z"/>
	</g>
</g>
<g>
	<g>
		<path fill="#E4192D" d="M49.44,76.864c-0.001,0-0.003,0-0.005,0l-1.283,0.005c-0.536,0.003-0.969,0.439-0.967,0.976
			c0.002,0.535,0.437,0.968,0.971,0.968c0.001,0,0.003,0,0.005,0l1.283-0.006c0.536-0.002,0.969-0.439,0.966-0.976
			C50.409,77.296,49.975,76.864,49.44,76.864z"/>
	</g>
</g>
<g>
	<g>
		<path fill="#E4192D" d="M54.505,59.466c-0.305-0.192-0.592-0.417-0.853-0.667c-0.387-0.372-1.001-0.36-1.373,0.025
			c-0.372,0.388-0.36,1.002,0.026,1.374c0.355,0.342,0.748,0.647,1.163,0.911c0.161,0.101,0.34,0.149,0.518,0.149
			c0.322,0,0.638-0.16,0.822-0.453C55.095,60.353,54.959,59.752,54.505,59.466z"/>
	</g>
</g>
<g>
	<g>
		<path fill="#E4192D" d="M52.118,55.987c-0.065-0.335-0.099-0.679-0.099-1.023V54.91c0.007-0.536-0.423-0.977-0.959-0.982
			c-0.004,0-0.008,0-0.012,0c-0.531,0-0.965,0.428-0.971,0.96l0,0.076c0,0.47,0.045,0.938,0.134,1.396
			c0.09,0.464,0.497,0.785,0.952,0.785c0.062,0,0.124-0.006,0.188-0.018C51.877,57.024,52.221,56.514,52.118,55.987z"/>
	</g>
</g>
<g>
	<g>
		<path fill="#E4192D" d="M64.065,60.282h-1.282c-0.536,0-0.972,0.436-0.972,0.972s0.436,0.971,0.972,0.971h1.282
			c0.536,0,0.971-0.435,0.971-0.971S64.602,60.282,64.065,60.282z"/>
	</g>
</g>
<g>
	<g>
		<path fill="#E4192D" d="M79.658,62.26c-0.374-0.295-0.774-0.563-1.189-0.797c-0.466-0.264-1.06-0.098-1.323,0.369
			c-0.263,0.468-0.098,1.06,0.37,1.322c0.327,0.186,0.644,0.396,0.939,0.63c0.178,0.142,0.39,0.209,0.601,0.209
			c0.286,0,0.57-0.127,0.763-0.369C80.15,63.203,80.079,62.593,79.658,62.26z"/>
	</g>
</g>
<g>
	<g>
		<path fill="#E4192D" d="M76.054,77.514c-0.075-0.532-0.565-0.904-1.096-0.829c-0.317,0.044-0.645,0.066-0.969,0.068l-0.182,0.001
			c-0.536,0.003-0.969,0.439-0.967,0.976c0.003,0.535,0.438,0.967,0.972,0.967c0.001,0,0.003,0,0.005,0l0.181-0.001
			c0.41-0.002,0.823-0.031,1.226-0.087C75.755,78.535,76.127,78.044,76.054,77.514z"/>
	</g>
</g>
<g>
	<g>
		<path fill="#E4192D" d="M80.339,74.782c-0.37-0.389-0.985-0.403-1.372-0.034c-0.272,0.26-0.568,0.501-0.877,0.715
			c-0.44,0.307-0.551,0.911-0.246,1.352c0.189,0.272,0.492,0.418,0.8,0.418c0.19,0,0.384-0.056,0.553-0.173
			c0.392-0.271,0.766-0.575,1.11-0.903C80.694,75.786,80.709,75.171,80.339,74.782z"/>
	</g>
</g>
<g>
	<g>
		<path fill="#E4192D" d="M82.229,70.065c-0.526-0.1-1.034,0.248-1.134,0.775c-0.07,0.368-0.169,0.735-0.295,1.089
			c-0.181,0.506,0.083,1.062,0.588,1.241c0.108,0.039,0.219,0.058,0.327,0.058c0.398,0,0.772-0.249,0.914-0.646
			c0.16-0.449,0.286-0.915,0.374-1.384C83.104,70.672,82.757,70.165,82.229,70.065z"/>
	</g>
</g>
<g>
	<g>
		<path fill="#E4192D" d="M82.806,66.944c-0.131-0.459-0.3-0.911-0.502-1.344c-0.227-0.486-0.805-0.696-1.291-0.47
			s-0.696,0.805-0.469,1.29c0.158,0.342,0.292,0.698,0.395,1.059c0.123,0.426,0.512,0.704,0.934,0.704
			c0.089,0,0.18-0.013,0.269-0.038C82.656,67.997,82.954,67.459,82.806,66.944z"/>
	</g>
</g>
<g>
	<g>
		<path fill="#E4192D" d="M69.196,60.282h-1.282c-0.536,0-0.971,0.436-0.971,0.972s0.435,0.971,0.971,0.971h1.282
			c0.536,0,0.971-0.435,0.971-0.971S69.732,60.282,69.196,60.282z"/>
	</g>
</g>
<g>
	<g>
		<path fill="#E4192D" d="M64.833,76.794c-0.002,0-0.003,0-0.005,0L63.546,76.8c-0.536,0.002-0.969,0.439-0.967,0.976
			c0.003,0.535,0.437,0.967,0.971,0.967c0.002,0,0.003,0,0.005,0l1.282-0.006c0.536-0.003,0.969-0.439,0.967-0.976
			C65.803,77.226,65.367,76.794,64.833,76.794z"/>
	</g>
</g>
<g>
	<g>
		<path fill="#E4192D" d="M74.37,60.292c-0.138-0.006-0.276-0.009-0.414-0.009h-0.911c-0.536,0-0.971,0.435-0.971,0.971
			s0.434,0.971,0.971,0.971h0.911l0,0c0.11,0,0.22,0.003,0.328,0.008c0.015,0.001,0.029,0.001,0.044,0.001
			c0.517,0,0.946-0.407,0.969-0.929C75.321,60.769,74.906,60.315,74.37,60.292z"/>
	</g>
</g>
<g>
	<g>
		<path fill="#E4192D" d="M69.964,76.771c-0.001,0-0.003,0-0.004,0l-1.283,0.006c-0.536,0.001-0.969,0.439-0.967,0.975
			c0.003,0.535,0.437,0.968,0.971,0.968c0.002,0,0.004,0,0.005,0l1.282-0.006c0.536-0.003,0.969-0.439,0.968-0.976
			C70.934,77.203,70.498,76.771,69.964,76.771z"/>
	</g>
</g>
</svg>
