<?xml version="1.0" encoding="utf-8"?>
<!-- Generator: Adobe Illustrator 15.0.0, SVG Export Plug-In . SVG Version: 6.00 Build 0)  -->
<!DOCTYPE svg PUBLIC "-//W3C//DTD SVG 1.1//EN" "http://www.w3.org/Graphics/SVG/1.1/DTD/svg11.dtd">
<svg version="1.1" id="Layer_1" xmlns="http://www.w3.org/2000/svg" xmlns:xlink="http://www.w3.org/1999/xlink" x="0px" y="0px"
	 width="100px" height="100px" viewBox="0 0 100 100" enable-background="new 0 0 100 100" xml:space="preserve">
<g>
	<path fill="#E4192D" d="M77.773,26.909c-0.547-0.335-1.226-0.367-1.799-0.083l-4.891,2.429c0.021-0.232,0.063-0.472,0.063-0.693
		c0-7.153-5.82-12.972-12.972-12.972s-12.972,5.818-12.972,12.972c0,0.253,0.042,0.523,0.071,0.788l-7.554-2.614
		c-0.472-0.163-0.99-0.129-1.438,0.094l-14.604,7.3c-0.628,0.313-1.025,0.957-1.025,1.661v45.169c0,0.623,0.313,1.206,0.836,1.551
		c0.521,0.343,1.182,0.401,1.753,0.154l14.23-6.113l20.008,8.067c0.223,0.091,0.459,0.136,0.694,0.136
		c0.28,0,0.558-0.063,0.815-0.188l18.916-9.238c0.643-0.313,1.048-0.968,1.044-1.68l-0.296-45.168
		C78.652,27.838,78.318,27.245,77.773,26.909z M58.175,19.303c5.105,0,9.257,4.153,9.257,9.258c0,3.517-5.224,10.482-9.257,14.952
		c-4.032-4.47-9.257-11.435-9.257-14.952C48.917,23.456,53.07,19.303,58.175,19.303z M56.318,46.977v33.167l-17.347-6.995v-7.261
		c1.983-2.136,7.298-8.235,7.298-12.351c0-4.413-3.138-8.106-7.298-8.967V31.097l7.692,2.663
		C49.248,39.176,54.521,45.057,56.318,46.977z M37.114,48.096c3.001,0,5.441,2.441,5.441,5.441c0,1.917-2.856,5.909-5.441,8.862
		c-2.586-2.953-5.442-6.945-5.442-8.862C31.671,50.537,34.112,48.096,37.114,48.096z M24.368,36.937l10.889-5.442v13.077
		c-4.163,0.861-7.3,4.554-7.3,8.967c0,4.115,5.313,10.213,7.3,12.349v7.575l-10.889,4.678V36.937z M60.032,79.922V46.977
		c1.748-1.869,6.803-7.488,9.454-12.784l5.475-2.717l0.267,41.025L60.032,79.922z"/>
	<path fill="#E4192D" d="M37.113,55.843c1.209,0,2.195-0.984,2.195-2.195c0-1.21-0.985-2.196-2.195-2.196
		c-1.21,0-2.193,0.985-2.193,2.196S35.903,55.843,37.113,55.843z"/>
	<path fill="#E4192D" d="M65.207,28.294c0-3.877-3.155-7.032-7.033-7.032c-3.877,0-7.031,3.155-7.031,7.032
		c0,3.876,3.154,7.032,7.031,7.032C62.052,35.327,65.207,32.17,65.207,28.294z M54.859,28.294c0-1.829,1.487-3.317,3.315-3.317
		s3.317,1.488,3.317,3.317c0,1.828-1.489,3.317-3.317,3.317S54.859,30.122,54.859,28.294z"/>
</g>
</svg>
