<?xml version="1.0" encoding="utf-8"?>
<!-- Generator: Adobe Illustrator 15.0.0, SVG Export Plug-In . SVG Version: 6.00 Build 0)  -->
<!DOCTYPE svg PUBLIC "-//W3C//DTD SVG 1.1//EN" "http://www.w3.org/Graphics/SVG/1.1/DTD/svg11.dtd">
<svg version="1.1" id="Layer_1" xmlns="http://www.w3.org/2000/svg" xmlns:xlink="http://www.w3.org/1999/xlink" x="0px" y="0px"
	 width="100px" height="100px" viewBox="0 0 100 100" enable-background="new 0 0 100 100" xml:space="preserve">
<g>
	<path fill="#E4192D" d="M49.366,55.255l-1.658-2.21C47.206,52.378,35.41,36.548,35.41,27.099c0-10.65,7.519-14.431,13.957-14.431
		c6.438,0,13.957,3.781,13.957,14.431c0,9.452-11.799,25.279-12.299,25.946L49.366,55.255z M49.366,16.814
		c-2.302,0-9.811,0.743-9.811,10.284c0,5.732,6.063,15.718,9.811,21.146c3.747-5.429,9.811-15.414,9.811-21.146
		C59.177,17.556,51.668,16.814,49.366,16.814z"/>
</g>
<g>
	<path fill="#E4192D" d="M15.467,78.846V35.289l22.803-6.707v43.391L15.467,78.846z M19.614,38.391v34.875l14.51-4.375V34.122
		L19.614,38.391z"/>
</g>
<g>
	<polygon fill="#E4192D" points="58.555,78.178 34.125,72.05 34.125,31.167 38.271,31.167 38.271,68.814 58.66,73.932 
		79.732,69.755 79.732,33.067 58.758,38.996 57.629,35.007 83.877,27.587 83.877,73.16 	"/>
</g>
<g>
	<rect x="56.928" y="37.386" fill="#E4192D" width="4.147" height="37.314"/>
</g>
<g>
	<path fill="#E4192D" d="M50.03,33.151c-3.753,0-6.806-3.052-6.806-6.806c0-3.751,3.053-6.805,6.806-6.805
		c3.753,0,6.805,3.054,6.805,6.805C56.835,30.099,53.783,33.151,50.03,33.151z M50.03,21.614c-2.61,0-4.732,2.122-4.732,4.731
		c0,2.61,2.124,4.732,4.732,4.732c2.609,0,4.734-2.124,4.734-4.732C54.764,23.736,52.639,21.614,50.03,21.614z"/>
</g>
</svg>
