<?xml version="1.0" encoding="utf-8"?>
<!-- Generator: Adobe Illustrator 15.0.0, SVG Export Plug-In . SVG Version: 6.00 Build 0)  -->
<!DOCTYPE svg PUBLIC "-//W3C//DTD SVG 1.1//EN" "http://www.w3.org/Graphics/SVG/1.1/DTD/svg11.dtd">
<svg version="1.1" id="Layer_1" xmlns="http://www.w3.org/2000/svg" xmlns:xlink="http://www.w3.org/1999/xlink" x="0px" y="0px"
	 width="100px" height="100px" viewBox="0 0 100 100" enable-background="new 0 0 100 100" xml:space="preserve">
<g>
	<path fill="#E4192D" d="M70.112,82.263c-6.291,0-11.409-5.118-11.409-11.409c0-6.293,5.118-11.413,11.409-11.413
		c6.293,0,11.413,5.12,11.413,11.413C81.525,77.145,76.405,82.263,70.112,82.263z M70.112,61.441c-5.187,0-9.408,4.222-9.408,9.412
		c0,5.187,4.222,9.408,9.408,9.408c5.19,0,9.412-4.222,9.412-9.408C79.524,65.663,75.303,61.441,70.112,61.441z"/>
</g>
<g>
	<rect x="68.842" y="64.594" fill="#E4192D" width="2.002" height="14.009"/>
</g>
<g>
	<rect x="62.839" y="70.598" fill="#E4192D" width="14.008" height="2.001"/>
</g>
<g>
	<path fill="#E4192D" d="M80.85,22.499c0,1.143-0.927,2.071-2.071,2.071H30.89c-1.145,0-2.071-0.928-2.071-2.071v-1.86
		c0-1.144,0.926-2.072,2.071-2.072h47.889c1.145,0,2.071,0.928,2.071,2.072V22.499z"/>
</g>
<g>
	<path fill="#E4192D" d="M80.85,34.506c0,1.143-0.927,2.071-2.071,2.071H30.89c-1.145,0-2.071-0.928-2.071-2.071v-1.861
		c0-1.143,0.926-2.071,2.071-2.071h47.889c1.145,0,2.071,0.928,2.071,2.071V34.506z"/>
</g>
<g>
	<path fill="#E4192D" d="M80.85,46.513c0,1.144-0.927,2.072-2.071,2.072H30.89c-1.145,0-2.071-0.928-2.071-2.072v-1.86
		c0-1.143,0.926-2.072,2.071-2.072h47.889c1.145,0,2.071,0.929,2.071,2.072V46.513z"/>
</g>
<g>
	<path fill="#E4192D" d="M54.834,58.52c0,1.144-0.488,2.072-1.095,2.072H29.913c-0.606,0-1.094-0.929-1.094-2.072v-1.86
		c0-1.143,0.488-2.071,1.094-2.071h23.827c0.606,0,1.095,0.929,1.095,2.071V58.52z"/>
</g>
<g>
	<path fill="#E4192D" d="M48.83,70.527c0,1.144-0.381,2.071-0.852,2.071H29.67c-0.473,0-0.852-0.928-0.852-2.071v-1.86
		c0-1.144,0.379-2.072,0.852-2.072h18.308c0.471,0,0.852,0.929,0.852,2.072V70.527z"/>
</g>
<g>
	<path fill="#E4192D" d="M24.816,24.5c0,1.144-0.926,2.072-2.072,2.072h-1.86c-1.145,0-2.071-0.928-2.071-2.072v-1.86
		c0-1.143,0.926-2.072,2.071-2.072h1.86c1.146,0,2.072,0.929,2.072,2.072V24.5z"/>
</g>
<g>
	<path fill="#E4192D" d="M24.816,34.506c0,1.143-0.926,2.071-2.072,2.071h-1.86c-1.145,0-2.071-0.928-2.071-2.071v-1.861
		c0-1.143,0.926-2.071,2.071-2.071h1.86c1.146,0,2.072,0.928,2.072,2.071V34.506z"/>
</g>
<g>
	<path fill="#E4192D" d="M24.816,46.513c0,1.144-0.926,2.072-2.072,2.072h-1.86c-1.145,0-2.071-0.928-2.071-2.072v-1.86
		c0-1.143,0.926-2.072,2.071-2.072h1.86c1.146,0,2.072,0.929,2.072,2.072V46.513z"/>
</g>
<g>
	<path fill="#E4192D" d="M24.816,58.52c0,1.144-0.926,2.072-2.072,2.072h-1.86c-1.145,0-2.071-0.929-2.071-2.072v-1.86
		c0-1.143,0.926-2.071,2.071-2.071h1.86c1.146,0,2.072,0.929,2.072,2.071V58.52z"/>
</g>
<g>
	<path fill="#E4192D" d="M24.816,70.527c0,1.144-0.926,2.071-2.072,2.071h-1.86c-1.145,0-2.071-0.928-2.071-2.071v-1.86
		c0-1.144,0.926-2.072,2.071-2.072h1.86c1.146,0,2.072,0.929,2.072,2.072V70.527z"/>
</g>
</svg>
