<?xml version="1.0" encoding="utf-8"?>
<!-- Generator: Adobe Illustrator 15.0.0, SVG Export Plug-In . SVG Version: 6.00 Build 0)  -->
<!DOCTYPE svg PUBLIC "-//W3C//DTD SVG 1.1//EN" "http://www.w3.org/Graphics/SVG/1.1/DTD/svg11.dtd">
<svg version="1.1" id="Layer_1" xmlns="http://www.w3.org/2000/svg" xmlns:xlink="http://www.w3.org/1999/xlink" x="0px" y="0px"
	 width="100px" height="100px" viewBox="0 0 100 100" enable-background="new 0 0 100 100" xml:space="preserve">
<g>
	<g>
		
			<rect x="29.236" y="37.548" transform="matrix(0.7071 -0.7071 0.7071 0.7071 -26.1905 51.4756)" fill="#F4A3AB" width="39.61" height="39.609"/>
	</g>
	<g>
		<path fill="#E4192D" d="M49.04,86.778L19.617,57.353L49.04,27.93l29.425,29.423L49.04,86.778z M22.45,57.353l26.59,26.591
			l26.592-26.591L49.04,30.763L22.45,57.353z"/>
	</g>
	<g>
		
			<rect x="29.772" y="22.406" transform="matrix(0.7071 -0.7071 0.7071 0.7071 -15.3266 47.4184)" fill="#FFFFFF" width="39.61" height="39.608"/>
	</g>
	<g>
		<path fill="#E4192D" d="M49.576,71.636L20.153,42.21l29.423-29.423L79,42.21L49.576,71.636z M22.986,42.21l26.59,26.59
			l26.591-26.59l-26.591-26.59L22.986,42.21z"/>
	</g>
</g>
</svg>
