<?xml version="1.0" encoding="utf-8"?>
<!-- Generator: Adobe Illustrator 15.0.0, SVG Export Plug-In . SVG Version: 6.00 Build 0)  -->
<!DOCTYPE svg PUBLIC "-//W3C//DTD SVG 1.1//EN" "http://www.w3.org/Graphics/SVG/1.1/DTD/svg11.dtd">
<svg version="1.1" id="Layer_1" xmlns="http://www.w3.org/2000/svg" xmlns:xlink="http://www.w3.org/1999/xlink" x="0px" y="0px"
	 width="100px" height="100px" viewBox="0 0 100 100" enable-background="new 0 0 100 100" xml:space="preserve">
<g>
	<path fill="#E4192D" d="M34.234,59.258"/>
</g>
<g>
	<path fill="#E4192D" d="M74.365,88.309c-7.633,0-13.844-6.21-13.844-13.844c0-7.636,6.211-13.848,13.844-13.848
		c7.636,0,13.849,6.212,13.849,13.848C88.214,82.099,82.001,88.309,74.365,88.309z M74.365,63.045
		c-6.293,0-11.415,5.122-11.415,11.42c0,6.294,5.122,11.415,11.415,11.415c6.298,0,11.421-5.121,11.421-11.415
		C85.786,68.167,80.663,63.045,74.365,63.045z"/>
</g>
<g>
	<rect x="72.5" y="66.5" fill="#E4192D" width="3" height="18"/>
</g>
<g>
	<rect x="65.5" y="74.5" fill="#E4192D" width="17" height="2"/>
</g>
<g>
	<path fill="#E4192D" d="M88.5,16.986c0,1.388-1.125,2.514-2.513,2.514H27.013c-1.388,0-2.513-1.125-2.513-2.514v-2.973
		c0-1.388,1.125-2.514,2.513-2.514h58.975c1.388,0,2.513,1.125,2.513,2.514V16.986z"/>
</g>
<g>
	<path fill="#E4192D" d="M88.5,30.987c0,1.388-1.125,2.513-2.513,2.513H27.013c-1.388,0-2.513-1.125-2.513-2.513v-2.974
		c0-1.388,1.125-2.513,2.513-2.513h58.975c1.388,0,2.513,1.125,2.513,2.513V30.987z"/>
</g>
<g>
	<path fill="#E4192D" d="M88.5,44.987c0,1.388-1.125,2.513-2.513,2.513H27.013c-1.388,0-2.513-1.125-2.513-2.513v-2.974
		c0-1.388,1.125-2.513,2.513-2.513h58.975c1.388,0,2.513,1.125,2.513,2.513V44.987z"/>
</g>
<g>
	<path fill="#E4192D" d="M56.5,59.987c0,1.388-0.595,2.513-1.328,2.513H25.828c-0.733,0-1.328-1.125-1.328-2.513v-2.975
		c0-1.388,0.595-2.513,1.328-2.513h29.344c0.733,0,1.328,1.125,1.328,2.513V59.987z"/>
</g>
<g>
	<path fill="#E4192D" d="M48.5,74.986c0,1.389-0.463,2.514-1.034,2.514H25.534c-0.571,0-1.034-1.125-1.034-2.514v-2.973
		c0-1.389,0.463-2.514,1.034-2.514h21.933c0.571,0,1.034,1.125,1.034,2.514V74.986z"/>
</g>
<g>
	<path fill="#E4192D" d="M19.5,18.986c0,1.388-1.125,2.514-2.514,2.514h-2.973c-1.388,0-2.514-1.125-2.514-2.514v-2.973
		c0-1.388,1.125-2.514,2.514-2.514h2.973c1.388,0,2.514,1.125,2.514,2.514V18.986z"/>
</g>
<g>
	<path fill="#E4192D" d="M19.5,30.987c0,1.388-1.125,2.513-2.514,2.513h-2.973c-1.388,0-2.514-1.125-2.514-2.513v-2.974
		c0-1.388,1.125-2.513,2.514-2.513h2.973c1.388,0,2.514,1.125,2.514,2.513V30.987z"/>
</g>
<g>
	<path fill="#E4192D" d="M19.5,44.987c0,1.388-1.125,2.513-2.514,2.513h-2.973c-1.388,0-2.514-1.125-2.514-2.513v-2.974
		c0-1.388,1.125-2.513,2.514-2.513h2.973c1.388,0,2.514,1.125,2.514,2.513V44.987z"/>
</g>
<g>
	<path fill="#E4192D" d="M19.5,59.987c0,1.388-1.125,2.513-2.514,2.513h-2.973c-1.388,0-2.514-1.125-2.514-2.513v-2.975
		c0-1.388,1.125-2.513,2.514-2.513h2.973c1.388,0,2.514,1.125,2.514,2.513V59.987z"/>
</g>
<g>
	<path fill="#E4192D" d="M19.5,74.986c0,1.389-1.125,2.514-2.514,2.514h-2.973c-1.388,0-2.514-1.125-2.514-2.514v-2.973
		c0-1.389,1.125-2.514,2.514-2.514h2.973c1.388,0,2.514,1.125,2.514,2.514V74.986z"/>
</g>
</svg>
