<?xml version="1.0" encoding="utf-8"?>
<!-- Generator: Adobe Illustrator 15.0.0, SVG Export Plug-In . SVG Version: 6.00 Build 0)  -->
<!DOCTYPE svg PUBLIC "-//W3C//DTD SVG 1.1//EN" "http://www.w3.org/Graphics/SVG/1.1/DTD/svg11.dtd">
<svg version="1.1" id="Layer_1" xmlns="http://www.w3.org/2000/svg" xmlns:xlink="http://www.w3.org/1999/xlink" x="0px" y="0px"
	 width="100px" height="100px" viewBox="0 0 100 100" enable-background="new 0 0 100 100" xml:space="preserve">
<g>
	<path fill="#E4192D" d="M49.708,88.09c-16.272,0-29.51-13.238-29.51-29.511c0-16.271,13.238-29.508,29.51-29.508
		c16.271,0,29.508,13.237,29.508,29.508C79.216,74.852,65.979,88.09,49.708,88.09z M49.708,32.669
		c-14.288,0-25.912,11.624-25.912,25.91c0,14.289,11.625,25.913,25.912,25.913c14.286,0,25.91-11.624,25.91-25.913
		C75.618,44.292,63.994,32.669,49.708,32.669z"/>
</g>
<g>
	<polygon fill="#E4192D" points="51.134,78.688 34.942,52.438 34.942,72.855 31.344,72.855 31.344,39.749 47.536,66.001 
		47.536,26.081 51.134,26.081 	"/>
</g>
<g>
	<path fill="#E4192D" d="M61.542,27.879h-24.57l12.796-16.89L61.542,27.879z M44.212,24.281h10.436l-5.001-7.174L44.212,24.281z"/>
</g>
</svg>
