<?xml version="1.0" encoding="utf-8"?>
<!-- Generator: Adobe Illustrator 15.0.0, SVG Export Plug-In . SVG Version: 6.00 Build 0)  -->
<!DOCTYPE svg PUBLIC "-//W3C//DTD SVG 1.1//EN" "http://www.w3.org/Graphics/SVG/1.1/DTD/svg11.dtd">
<svg version="1.1" id="Layer_1" xmlns="http://www.w3.org/2000/svg" xmlns:xlink="http://www.w3.org/1999/xlink" x="0px" y="0px"
	 width="100px" height="100px" viewBox="0 0 100 100" enable-background="new 0 0 100 100" xml:space="preserve">
<g>
	<polygon fill="#E4192D" points="37.583,75.916 14.036,68.839 14.036,21.004 38.464,32.402 36.801,35.966 17.97,27.179 
		17.97,65.917 37.683,71.842 57.297,66.983 57.297,60.438 61.229,60.438 61.229,70.06 	"/>
</g>
<g>
	<polygon fill="#E4192D" points="85.105,79.769 59.087,70.372 60.423,66.675 81.173,74.167 81.17,33.771 60.638,26.255 39.6,35.392 
		39.6,38.815 35.667,38.815 35.667,32.813 60.516,22.021 85.103,31.024 	"/>
</g>
<g>
	<path fill="#E4192D" d="M72.344,34.013c-3.468,0-6.289,2.894-6.289,6.449c0,1.407,0.432,2.747,1.262,3.875l5.027,6.61l5.033-6.61
		l0.003-0.008c0.823-1.12,1.259-2.459,1.259-3.866C78.639,36.907,75.815,34.013,72.344,34.013 M72.408,43.424
		c-1.515,0-2.743-1.233-2.743-2.754c0-1.523,1.229-2.757,2.743-2.757c1.517,0,2.745,1.233,2.745,2.757
		C75.153,42.191,73.925,43.424,72.408,43.424"/>
</g>
<g>
	<path fill="#E4192D" d="M26.386,43.679c-4.147,0-7.521,3.46-7.521,7.711c0,1.682,0.518,3.278,1.508,4.629l6.013,7.903l6.015-7.903
		l0.006-0.009c0.98-1.341,1.501-2.939,1.501-4.621C33.907,47.138,30.532,43.679,26.386,43.679 M26.463,54.928
		c-1.812,0-3.28-1.473-3.28-3.294c0-1.818,1.469-3.292,3.28-3.292c1.81,0,3.279,1.474,3.279,3.292
		C29.742,53.455,28.274,54.928,26.463,54.928"/>
</g>
</svg>
