<?xml version="1.0" encoding="utf-8"?>
<!-- Generator: Adobe Illustrator 15.0.0, SVG Export Plug-In . SVG Version: 6.00 Build 0)  -->
<!DOCTYPE svg PUBLIC "-//W3C//DTD SVG 1.1//EN" "http://www.w3.org/Graphics/SVG/1.1/DTD/svg11.dtd">
<svg version="1.1" id="Layer_1" xmlns="http://www.w3.org/2000/svg" xmlns:xlink="http://www.w3.org/1999/xlink" x="0px" y="0px"
	 width="100px" height="100px" viewBox="0 0 100 100" enable-background="new 0 0 100 100" xml:space="preserve">
<g>
	<path fill="#E4192D" d="M81.248,74.76H18.11l3.563-4.844c3.816-5.179,4.504-6.111,5.201-12.324
		c0.109-0.959,0.229-2.216,0.365-3.633c0.46-4.79,1.089-11.35,2.042-14.736c1.945-6.925,4.617-8.981,9.171-12.019
		c2.564-1.708,7.016-1.962,9.441-1.962c2.457,0,4.74,0.248,6.268,0.683c9.263,2.628,14.491,9.085,14.715,18.181
		c0.285,11.33,1.708,18.535,8.686,26.462L81.248,74.76z M28.037,69.712h42.458c-5.168-7.548-6.402-15.12-6.663-25.479
		c-0.173-6.895-3.89-11.422-11.049-13.454c-1.052-0.298-2.97-0.491-4.891-0.491c-3.432,0-5.809,0.56-6.643,1.115
		c-3.943,2.63-5.577,3.72-7.111,9.186c-0.831,2.953-1.46,9.512-1.877,13.853c-0.14,1.45-0.263,2.735-0.374,3.715
		C31.231,64.012,30.28,66.419,28.037,69.712z"/>
</g>
<g>
	<path fill="#E4192D" d="M55.362,28.881h-5.047c0-0.631,0.031-1.348,0.063-2.112c0.102-2.336,0.255-5.868-0.896-7.097
		c-0.208-0.222-0.598-0.52-1.584-0.541c-1.035-0.021-1.745,0.173-2.143,0.581c-0.993,1.02-0.86,3.81-0.772,5.656
		c0.048,1.029,0.091,1.917,0.003,2.699l-5.014-0.561c0.042-0.383,0.006-1.153-0.03-1.898c-0.138-2.882-0.326-6.828,2.198-9.417
		c1.413-1.451,3.375-2.179,5.866-2.105c2.138,0.046,3.874,0.765,5.157,2.136c2.604,2.778,2.41,7.208,2.254,10.768
		C55.391,27.674,55.362,28.316,55.362,28.881z"/>
</g>
<g>
	<path fill="#E4192D" d="M49.189,85.732c-5.324,0-9.995-5.188-9.995-11.104h5.047c0,3.113,2.404,6.058,4.947,6.058
		c2.52,0,4.813-2.888,4.813-6.058h5.047C59.05,80.646,54.534,85.732,49.189,85.732z"/>
</g>
</svg>
