<?xml version="1.0" encoding="utf-8"?>
<!-- Generator: Adobe Illustrator 15.0.0, SVG Export Plug-In . SVG Version: 6.00 Build 0)  -->
<!DOCTYPE svg PUBLIC "-//W3C//DTD SVG 1.1//EN" "http://www.w3.org/Graphics/SVG/1.1/DTD/svg11.dtd">
<svg version="1.1" id="Layer_1" xmlns="http://www.w3.org/2000/svg" xmlns:xlink="http://www.w3.org/1999/xlink" x="0px" y="0px"
	 width="100px" height="100px" viewBox="0 0 100 100" enable-background="new 0 0 100 100" xml:space="preserve">
<g>
	<path fill="#E4192D" d="M25.052,50.184c0-11.635,9.724-21.242,22.327-22.739c-1.125-0.132-2.271-0.208-3.436-0.208
		c-14.229,0-25.762,10.274-25.762,22.947c0,12.673,11.533,22.948,25.762,22.948c1.165,0,2.312-0.074,3.436-0.208
		C34.775,71.426,25.052,61.819,25.052,50.184"/>
</g>
<g>
	<path fill="#E4192D" d="M52.902,27.469v45.433c11.391-1.57,20.993-11.14,20.993-22.717C73.896,38.609,64.293,29.039,52.902,27.469"
		/>
</g>
<g>
	<polygon fill="#E4192D" points="49.105,85.727 49.105,85.727 49.105,14.738 	"/>
</g>
<g>
	<rect x="47.208" y="14.738" fill="#E4192D" width="3.796" height="70.988"/>
</g>
<g>
	<polygon fill="#E4192D" points="52.902,24.23 52.902,24.23 52.902,18.535 	"/>
</g>
<g>
	
		<rect x="63.597" y="23.895" transform="matrix(0.8575 0.5144 -0.5144 0.8575 22.9082 -29.1987)" fill="#E4192D" width="1.146" height="5.728"/>
</g>
<g>
	
		<rect x="75.45" y="34.692" transform="matrix(0.5153 0.857 -0.857 0.5153 69.0317 -46.9486)" fill="#E4192D" width="1.145" height="5.726"/>
</g>
<g>
	
		<rect x="78.213" y="49.863" transform="matrix(0.1295 0.9916 -0.9916 0.1295 120.8677 -32.2232)" fill="#E4192D" width="1.146" height="5.727"/>
</g>
<g>
	
		<rect x="74.875" y="62.691" transform="matrix(-0.567 0.8237 -0.8237 -0.567 172.2247 40.5796)" fill="#E4192D" width="1.145" height="5.725"/>
</g>
<g>
	
		<rect x="65.716" y="70.706" transform="matrix(-0.8106 0.5856 -0.5856 -0.8106 163.1036 94.3871)" fill="#E4192D" width="1.146" height="5.725"/>
</g>
<g>
	<polygon fill="#E4192D" points="52.902,81.181 52.902,81.181 52.902,75.485 	"/>
</g>
<g>
	<polygon fill="#E4192D" points="29.119,17.797 30.568,20.73 33.804,21.201 31.461,23.485 32.014,26.71 29.119,25.187 26.224,26.71 
		26.777,23.485 24.435,21.201 27.67,20.73 	"/>
</g>
<g>
	<path fill="#E4192D" d="M22.937,31.154c0,1.044-0.845,1.889-1.889,1.889c-1.044,0-1.889-0.845-1.889-1.889s0.845-1.889,1.889-1.889
		C22.092,29.265,22.937,30.11,22.937,31.154"/>
</g>
</svg>
