<?xml version="1.0" encoding="utf-8"?>
<!-- Generator: Adobe Illustrator 15.0.0, SVG Export Plug-In . SVG Version: 6.00 Build 0)  -->
<!DOCTYPE svg PUBLIC "-//W3C//DTD SVG 1.1//EN" "http://www.w3.org/Graphics/SVG/1.1/DTD/svg11.dtd">
<svg version="1.1" id="Layer_1" xmlns="http://www.w3.org/2000/svg" xmlns:xlink="http://www.w3.org/1999/xlink" x="0px" y="0px"
	 width="100px" height="100px" viewBox="0 0 100 100" enable-background="new 0 0 100 100" xml:space="preserve">
<g>
	<path fill="#E4192D" d="M30.352,56.641c-3.57-4.738-5.458-10.387-5.458-16.334c0-14.976,12.183-27.159,27.157-27.159
		c5.078,0,10.034,1.413,14.336,4.086l-1.975,3.174c-3.707-2.304-7.982-3.522-12.361-3.522c-12.914,0-23.419,10.506-23.419,23.42
		c0,5.129,1.627,10,4.706,14.085L30.352,56.641z"/>
</g>
<g>
	<path fill="#E4192D" d="M52.054,67.465c-4.318,0-8.617-1.039-12.431-3.007c-0.719-0.37-1.421-0.771-2.104-1.206l2.004-3.154
		c0.588,0.372,1.191,0.72,1.812,1.037c3.335,1.721,6.941,2.592,10.719,2.592c12.912,0,23.419-10.507,23.419-23.42
		c0-6.08-2.32-11.843-6.529-16.226l2.694-2.59c4.885,5.083,7.573,11.766,7.573,18.816C79.211,55.281,67.028,67.465,52.054,67.465z"
		/>
</g>
<g>
	<path fill="#E4192D" d="M34.099,47.795l-0.229-0.604c-0.833-2.198-1.255-4.514-1.255-6.886c0-10.718,8.72-19.438,19.439-19.438
		c10.717,0,19.437,8.719,19.437,19.438c0,2.371-0.422,4.687-1.255,6.882l-0.229,0.603L34.099,47.795z M52.054,22.738
		c-9.688,0-17.57,7.881-17.57,17.568c0,1.928,0.308,3.816,0.918,5.62l33.302-0.004c0.608-1.802,0.917-3.689,0.917-5.616
		C69.621,30.619,61.741,22.738,52.054,22.738z"/>
</g>
<g>
	<line fill="#E4192D" x1="50.199" y1="22.701" x2="50.199" y2="32.046"/>
</g>
<g>
	<rect x="49.265" y="22.701" fill="#E4192D" width="1.869" height="9.345"/>
</g>
<g>
	<line fill="#E4192D" x1="62.641" y1="25.82" x2="57.564" y2="32.976"/>
</g>
<g>
	
		<rect x="59.167" y="25.012" transform="matrix(0.8155 0.5787 -0.5787 0.8155 28.1022 -29.3602)" fill="#E4192D" width="1.87" height="8.773"/>
</g>
<g>
	<line fill="#E4192D" x1="69.042" y1="32.976" x2="61.75" y2="36.469"/>
</g>
<g>
	
		<rect x="64.462" y="30.68" transform="matrix(0.4319 0.9019 -0.9019 0.4319 68.4699 -39.2562)" fill="#E4192D" width="1.868" height="8.086"/>
</g>
<g>
	<line fill="#E4192D" x1="69.825" y1="44.196" x2="64.218" y2="44.196"/>
</g>
<g>
	<rect x="64.218" y="43.261" fill="#E4192D" width="5.607" height="1.869"/>
</g>
<g>
	<line fill="#E4192D" x1="34.312" y1="44.196" x2="39.919" y2="44.196"/>
</g>
<g>
	<rect x="34.312" y="43.261" fill="#E4192D" width="5.607" height="1.869"/>
</g>
<g>
	<line fill="#E4192D" x1="35.566" y1="32.908" x2="41.477" y2="36.469"/>
</g>
<g>
	
		<rect x="35.071" y="33.755" transform="matrix(0.8566 0.5161 -0.5161 0.8566 23.427 -14.9032)" fill="#E4192D" width="6.9" height="1.868"/>
</g>
<g>
	<line fill="#E4192D" x1="41.477" y1="25.82" x2="46.203" y2="32.424"/>
</g>
<g>
	
		<rect x="39.779" y="28.188" transform="matrix(0.582 0.8132 -0.8132 0.582 42.0066 -23.4769)" fill="#E4192D" width="8.121" height="1.87"/>
</g>
<g>
	<polygon fill="#E4192D" points="51.134,45.62 51.134,44.521 45.921,40.085 46.609,39.523 48.622,39.523 56.924,46.696 
		52.768,47.397 	"/>
</g>
<g>
	<path fill="#E4192D" d="M35.653,87.306l-7.92-5.753c-5.863-4.078-8.039-6.896-7.246-9.4c0.828-2.612,4.325-2.705,5.056-2.724h3.156
		l-0.043-15.854l3.738-0.011l0.055,19.604h-6.917c-0.454,0.002-1.013,0.093-1.353,0.21c0.295,0.582,1.426,2.143,5.72,5.129
		l5.58,4.054l10.799-9.122c-0.129-0.081-0.291-0.17-0.491-0.271H38.57l0.041-10.377l3.738,0.015l-0.027,6.624h4.281l0.365,0.162
		c0.827,0.371,3.344,1.497,3.448,3.728c0.062,1.323-0.792,2.348-1.61,2.877L35.653,87.306z"/>
</g>
</svg>
