<?xml version="1.0" encoding="utf-8"?>
<!-- Generator: Adobe Illustrator 15.0.0, SVG Export Plug-In . SVG Version: 6.00 Build 0)  -->
<!DOCTYPE svg PUBLIC "-//W3C//DTD SVG 1.1//EN" "http://www.w3.org/Graphics/SVG/1.1/DTD/svg11.dtd">
<svg version="1.1" id="Layer_1" xmlns="http://www.w3.org/2000/svg" xmlns:xlink="http://www.w3.org/1999/xlink" x="0px" y="0px"
	 width="100px" height="100px" viewBox="0 0 100 100" enable-background="new 0 0 100 100" xml:space="preserve">
<g>
	<path fill="#E4192D" d="M28.759,56.551"/>
</g>
<g>
	<path fill="#E4192D" d="M57.446,53.163H42.129c-10.204,0-18.543-7.377-18.543-16.778c0-9.408,8.23-17.165,18.735-17.165h25.466
		v4.243H42.321c-7.984,0-14.24,5.283-14.24,12.167c0,6.922,6.325,12.44,14.098,12.44h15.887L57.446,53.163z"/>
</g>
<g>
	<path fill="#E4192D" d="M29.604,84.34v-4.023h3.252L58.1,79.563c7.462,0.074,14.198-5.895,14.268-13.119
		c0.062-6.952-6.349-13.282-14.293-13.282h-8.999L38.397,49.34l19.669-1.27c10.472,0.095,18.884,8.54,18.799,17.971
		c-0.095,9.787-8.761,17.858-18.775,17.838L29.604,84.34z"/>
</g>
<g>
	<path fill="#E4192D" d="M72.933,27.783c-4.399,0-7.979-3.581-7.979-7.983c0-4.402,3.58-7.983,7.979-7.983
		c4.4,0,7.983,3.581,7.983,7.983C80.916,24.202,77.333,27.783,72.933,27.783z M72.933,16.315c-1.92,0-3.482,1.563-3.482,3.484
		c0,1.922,1.561,3.486,3.482,3.486c1.923,0,3.485-1.563,3.485-3.486C76.416,17.878,74.854,16.315,72.933,16.315z"/>
</g>
<g>
	<path fill="#E4192D" d="M25.757,88.064c-4.402,0-7.983-3.579-7.983-7.981s3.582-7.981,7.983-7.981c4.4,0,7.981,3.579,7.981,7.981
		C33.737,84.485,30.157,88.064,25.757,88.064z M25.757,76.598c-1.922,0-3.485,1.562-3.485,3.485c0,1.921,1.564,3.484,3.485,3.484
		c1.921,0,3.482-1.563,3.482-3.484C29.239,78.159,27.679,76.598,25.757,76.598z"/>
</g>
<rect x="21.516" y="32.893" fill="#FFFFFF" width="8.97" height="8.967"/>
<rect x="69.759" y="57.249" fill="#FFFFFF" width="8.969" height="8.967"/>
<path fill="#E4192D" d="M25.757,44.817c-4.402,0-7.983-3.581-7.983-7.982c0-4.401,3.582-7.981,7.983-7.981
	c4.4,0,7.981,3.581,7.981,7.981C33.737,41.237,30.157,44.817,25.757,44.817z M25.757,33.352c-1.922,0-3.485,1.563-3.485,3.483
	c0,1.922,1.564,3.485,3.485,3.485c1.921,0,3.482-1.563,3.482-3.485C29.239,34.915,27.679,33.352,25.757,33.352z"/>
<path fill="#E4192D" d="M74.243,69.715c-4.4,0-7.981-3.582-7.981-7.981s3.582-7.981,7.981-7.981s7.982,3.582,7.982,7.981
	C82.227,66.133,78.645,69.715,74.243,69.715z M74.243,58.248c-1.922,0-3.484,1.563-3.484,3.485c0,1.921,1.563,3.484,3.484,3.484
	s3.485-1.563,3.485-3.484S76.167,58.248,74.243,58.248z"/>
</svg>
