<?xml version="1.0" encoding="utf-8"?>
<!-- Generator: Adobe Illustrator 15.0.0, SVG Export Plug-In . SVG Version: 6.00 Build 0)  -->
<!DOCTYPE svg PUBLIC "-//W3C//DTD SVG 1.1//EN" "http://www.w3.org/Graphics/SVG/1.1/DTD/svg11.dtd">
<svg version="1.1" id="Layer_1" xmlns="http://www.w3.org/2000/svg" xmlns:xlink="http://www.w3.org/1999/xlink" x="0px" y="0px"
	 width="100px" height="100px" viewBox="0 0 100 100" enable-background="new 0 0 100 100" xml:space="preserve">
<path fill="#E4192D" d="M75.077,23.987c0.279-1.083,0.43-2.204,0.43-3.351c0-7.177-5.689-13.015-12.688-13.015
	c-4.559,0-8.552,2.487-10.789,6.198c-0.555-0.035-1.115-0.062-1.678-0.072v-0.018c-0.077,0-0.149,0.008-0.225,0.01
	c-0.133-0.002-0.261-0.01-0.396-0.01c-20.817,0-37.754,17.696-37.754,39.447c0,9.408,3.173,18.052,8.455,24.839l0.833,1.451
	c0.076-0.048,0.161-0.091,0.237-0.138c6.921,8.146,17.006,13.292,28.228,13.292c0.046,0,0.092-0.002,0.141-0.002
	c0.025,0,0.051,0.002,0.079,0.002c0.092,0,0.182-0.01,0.276-0.014c11.116-0.148,21.082-5.341,27.906-13.486
	c0.074,0.046,0.155,0.087,0.232,0.134l0.66-1.228c5.284-6.789,8.46-15.439,8.46-24.852C87.484,41.614,82.691,31.205,75.077,23.987z
	 M42.315,16.655c-3.752,2.849-6.965,7.631-9.284,13.679c-1.405-0.886-2.764-1.813-4.113-2.729c-1.049-0.714-2.061-1.445-3.071-2.12
	C30.421,21.152,36.07,18.046,42.315,16.655z M24.359,26.981c1.106,0.683,2.212,1.384,3.375,2.173
	c1.48,1.006,3.013,2.039,4.633,3.018c-2.019,5.937-3.205,12.935-3.261,20.436H14.097C14.243,42.635,18.131,33.6,24.359,26.981z
	 M14.133,55.127h14.991c0.162,6.351,1.116,12.303,2.679,17.521c-3.618,1.015-6.94,2.329-9.85,3.893
	C17.4,70.613,14.532,63.207,14.133,55.127z M23.377,78.292c2.712-1.397,5.794-2.546,9.139-3.423
	c2.265,6.517,5.52,11.685,9.382,14.727C34.646,87.885,28.217,83.861,23.377,78.292z M47.832,90.251
	c-5.524-1.278-10.297-7.263-13.295-15.867c4.154-0.933,8.652-1.474,13.295-1.599V90.251z M47.832,70.269
	c-4.893,0.144-9.639,0.79-14.024,1.856c-1.497-5.033-2.417-10.816-2.577-17h16.601V70.269z M47.832,52.607h-16.62
	c0.054-7.138,1.097-13.794,2.896-19.43c3.884,2.152,8.308,3.88,13.724,4.242V52.607z M47.832,35.731
	c-5.166-0.385-9.338-2.155-13.109-4.361c2.969-8.177,7.607-13.872,13.109-15.217V35.731z M85.359,52.607H71
	c-0.043-5.737-0.744-11.398-2.046-16.53l4.012-7.626l0.013-0.011c0.521-0.715,0.957-1.476,1.323-2.267
	C80.988,32.854,85.212,42.218,85.359,52.607z M68.935,52.607H50.351V37.484c2.427-0.04,4.573-0.438,6.511-1.067l5.956,11.334
	l4.65-8.846C68.39,43.238,68.897,47.894,68.935,52.607z M56.038,34.848c-1.706,0.561-3.575,0.917-5.687,0.956V23.025
	c0.351,1.955,1.132,3.799,2.323,5.426L56.038,34.848z M50.351,55.127H68.92c-0.163,6.18-1.087,11.961-2.592,16.995
	c-4.965-1.201-10.403-1.853-15.977-1.88V55.127z M62.947,15.491c2.198,0,4.086,1.286,4.981,3.146
	c0.353,0.731,0.555,1.547,0.555,2.414c0,0.13-0.01,0.257-0.021,0.385c-0.196,2.891-2.586,5.177-5.516,5.177
	c-3.054,0-5.53-2.492-5.53-5.563c0-1.525,0.611-2.909,1.602-3.913c0.671-0.678,1.516-1.179,2.455-1.442
	C61.943,15.566,62.438,15.491,62.947,15.491z M50.351,15.854c0.222,0.004,0.444,0.019,0.667,0.028
	c-0.294,0.763-0.519,1.561-0.667,2.385V15.854z M50.409,90.497c-0.02,0.002-0.039,0.002-0.059,0.002V72.76
	c5.323,0.023,10.504,0.58,15.237,1.647C62.242,83.949,56.707,90.264,50.409,90.497z M58.239,89.433
	c3.801-3.06,7.022-8.155,9.282-14.549c3.178,0.835,6.114,1.914,8.72,3.223C71.532,83.595,65.295,87.616,58.239,89.433z
	 M77.702,76.283c-2.805-1.472-5.991-2.704-9.441-3.661c1.585-5.21,2.557-11.157,2.723-17.497h14.343
	C84.935,63.09,82.141,70.397,77.702,76.283z"/>
</svg>
