<?xml version="1.0" encoding="utf-8"?>
<!-- Generator: Adobe Illustrator 15.0.0, SVG Export Plug-In . SVG Version: 6.00 Build 0)  -->
<!DOCTYPE svg PUBLIC "-//W3C//DTD SVG 1.1//EN" "http://www.w3.org/Graphics/SVG/1.1/DTD/svg11.dtd">
<svg version="1.1" id="Layer_1" xmlns="http://www.w3.org/2000/svg" xmlns:xlink="http://www.w3.org/1999/xlink" x="0px" y="0px"
	 width="100px" height="100px" viewBox="0 0 100 100" enable-background="new 0 0 100 100" xml:space="preserve">
<g>
	<path fill="none" stroke="#FFFFFF" stroke-width="4.914" stroke-miterlimit="10" d="M25.134,58.292"/>
</g>
<g>
	<path fill="#E4192D" d="M54.5,64.595c0,2.157-1.749,3.905-3.906,3.905H24.406c-2.157,0-3.906-1.748-3.906-3.905V13.405
		c0-2.157,1.749-3.905,3.906-3.905h26.188c2.157,0,3.906,1.749,3.906,3.905V64.595z M52.5,13.95c0-0.801-0.648-1.45-1.449-1.45
		H23.949c-0.8,0-1.449,0.649-1.449,1.45v51.101c0,0.8,0.649,1.449,1.449,1.449h27.102c0.801,0,1.449-0.649,1.449-1.449V13.95z"/>
</g>
<g>
	<path fill="#E4192D" d="M84.34,80.481C69.825,63.57,66.564,45,64.616,33.905c-0.799-4.552-1.43-8.148-2.472-9.799
		c-1.024-1.625-2.109-2.524-2.948-2.45c-0.917,0.045-1.959,1.063-2.786,2.724c-1.132,2.272-1.279,4.57-0.979,5.014
		c3.565,2.198,5.422,4.847,5.441,7.808c0.033,5.542-6.564,9.828-6.845,10.011l-1.325-2.071c0.058-0.036,5.744-3.741,5.713-7.927
		c-0.017-2.062-1.482-4.012-4.359-5.805c-1.095-0.677-1.464-2.298-1.044-4.563c0.504-2.716,2.39-6.978,5.526-7.58
		c1.403-0.276,3.536,0.123,5.684,3.529c1.301,2.062,1.934,5.679,2.814,10.687c2.027,11.546,5.092,29,19.166,45.396L84.34,80.481z"/>
</g>
<g>
	<path fill="#E4192D" d="M58.495,90.456C50.582,73.14,34.437,68.188,34.273,68.14l0.693-2.356
		c0.706,0.206,17.369,5.278,25.765,23.65L58.495,90.456z"/>
</g>
<g>
	
		<rect x="52.759" y="58.262" transform="matrix(0.7681 0.6404 -0.6404 0.7681 50.9383 -21.6622)" fill="#E4192D" width="5.231" height="2.456"/>
</g>
<g>
	<path fill="#E4192D" d="M36.659,35.87l-1.968-6.74l-4.267-11.819l17.197,7.937l-7.119,2.299L36.659,35.87z M34.729,22.003
		l2.447,6.882l1.545-3.35l2.157-0.696L34.729,22.003z"/>
</g>
<g>
	<path fill="#E4192D" d="M40.5,63.5h-3v-5h3V63.5z M37.5,61.5h2v-2h-2V61.5z"/>
</g>
<g>
	<path fill="#FFFFFF" d="M27.668,25.418c0,2.896-2.35,5.245-5.248,5.245c-2.896,0-5.248-2.349-5.248-5.245
		c0-2.901,2.351-5.25,5.248-5.25C25.318,20.168,27.668,22.517,27.668,25.418z"/>
	<path fill="#E4192D" d="M22.42,31.584c-3.402,0-6.169-2.767-6.169-6.167c0-3.402,2.767-6.171,6.169-6.171s6.169,2.769,6.169,6.171
		C28.589,28.818,25.823,31.584,22.42,31.584z M22.42,21.09c-2.385,0-4.327,1.941-4.327,4.328c0,2.383,1.941,4.324,4.327,4.324
		s4.326-1.941,4.326-4.324C26.747,23.031,24.806,21.09,22.42,21.09z"/>
</g>
<g>
	<rect x="22.5" y="53.5" fill="#E4192D" width="32" height="3"/>
</g>
<g>
	<path fill="#FFFFFF" d="M27.668,35.246c0,2.896-2.35,5.245-5.248,5.245c-2.896,0-5.248-2.349-5.248-5.245
		c0-2.901,2.351-5.25,5.248-5.25C25.318,29.996,27.668,32.345,27.668,35.246z"/>
	<path fill="#E4192D" d="M22.42,41.412c-3.402,0-6.169-2.766-6.169-6.166c0-3.402,2.767-6.171,6.169-6.171s6.169,2.769,6.169,6.171
		C28.589,38.646,25.823,41.412,22.42,41.412z M22.42,30.917c-2.385,0-4.327,1.941-4.327,4.329c0,2.382,1.941,4.323,4.327,4.323
		s4.326-1.941,4.326-4.323C26.747,32.858,24.806,30.917,22.42,30.917z"/>
</g>
<g>
	<path fill="#FFFFFF" d="M27.668,45.074c0,2.896-2.35,5.245-5.248,5.245c-2.896,0-5.248-2.349-5.248-5.245
		c0-2.901,2.351-5.25,5.248-5.25C25.318,39.824,27.668,42.173,27.668,45.074z"/>
	<path fill="#E4192D" d="M22.42,51.24c-3.402,0-6.169-2.767-6.169-6.166c0-3.403,2.767-6.172,6.169-6.172s6.169,2.769,6.169,6.172
		C28.589,48.474,25.823,51.24,22.42,51.24z M22.42,40.745c-2.385,0-4.327,1.941-4.327,4.329c0,2.382,1.941,4.323,4.327,4.323
		s4.326-1.941,4.326-4.323C26.747,42.687,24.806,40.745,22.42,40.745z"/>
</g>
<g>
	<path fill="#FFFFFF" d="M27.668,54.902c0,2.895-2.35,5.245-5.248,5.245c-2.896,0-5.248-2.351-5.248-5.245
		c0-2.901,2.351-5.25,5.248-5.25C25.318,49.652,27.668,52.001,27.668,54.902z"/>
	<path fill="#E4192D" d="M22.42,61.068c-3.402,0-6.169-2.767-6.169-6.166c0-3.402,2.767-6.172,6.169-6.172s6.169,2.77,6.169,6.172
		C28.589,58.302,25.823,61.068,22.42,61.068z M22.42,50.574c-2.385,0-4.327,1.939-4.327,4.328c0,2.382,1.941,4.323,4.327,4.323
		s4.326-1.941,4.326-4.323C26.747,52.514,24.806,50.574,22.42,50.574z"/>
</g>
</svg>
